M48
;DRILL file {KiCad no-vcs-found-b05a40e~61~ubuntu17.10.1} date Sun Dec 24 20:37:06 2017
;FORMAT={-:-/ absolute / inch / decimal}
FMAT,2
INCH,TZ
T1C0.0157
T2C0.0197
T3C0.0236
T4C0.0276
%
G90
G05
M72
T1
X4.4357Y-2.8
X4.71Y-2.875
X5.64Y-2.875
X6.11Y-2.8
T2
X6.3Y-3.45
X6.3Y-3.75
X6.4Y-3.45
X6.4Y-3.75
X6.5Y-3.45
X6.5Y-3.75
X6.6Y-3.45
X6.6Y-3.75
X6.0236Y-2.5591
X6.6142Y-2.5591
X6.811Y-2.5591
X5.35Y-4.25
X5.35Y-4.35
X5.35Y-4.45
X5.4134Y-3.2362
X5.5118Y-3.2362
X5.6102Y-3.2362
X4.4094Y-2.5591
X6.6732Y-1.9094
X6.7732Y-1.9094
X6.4173Y-2.5591
X4.7Y-3.15
X4.7Y-3.25
X4.7Y-3.35
X4.7Y-3.45
X4.7Y-3.55
X4.7Y-3.65
X4.7Y-3.75
X4.7Y-3.85
X4.7Y-3.95
X4.7Y-4.05
X4.7Y-4.15
X4.7Y-4.25
X4.7Y-4.35
X4.7Y-4.45
X5.Y-3.15
X5.Y-3.25
X5.Y-3.35
X5.Y-3.45
X5.Y-3.55
X5.Y-3.65
X5.Y-3.75
X5.Y-3.85
X5.Y-3.95
X5.Y-4.05
X5.Y-4.15
X5.Y-4.25
X5.Y-4.35
X5.Y-4.45
X4.2126Y-2.5591
X4.4Y-3.3
X4.4Y-3.4
X4.4Y-3.5
X4.5Y-3.3
X4.5Y-3.4
X4.5Y-3.5
X4.4Y-3.85
X4.45Y-3.8
X4.45Y-3.9
X5.2618Y-1.725
X5.2618Y-2.225
X5.3618Y-1.725
X5.3618Y-2.225
X5.4618Y-1.725
X5.4618Y-2.225
X5.5618Y-1.725
X5.5618Y-2.225
X5.6618Y-1.725
X5.6618Y-2.225
X5.7618Y-1.725
X5.7618Y-2.225
X6.2205Y-2.5591
X4.8031Y-2.5591
X4.6063Y-2.5591
X5.Y-2.5591
T3
X4.25Y-2.75
X4.25Y-2.85
X4.3Y-2.8
X6.7Y-2.3
X6.75Y-2.25
X6.75Y-2.35
T4
X5.2638Y-3.5689G85X5.2638Y-3.5177
G05
X5.7598Y-3.5689G85X5.7598Y-3.5177
G05
T0
M30
